<svg xmlns="http://www.w3.org/2000/svg" xmlns:xlink="http://www.w3.org/1999/xlink" width="500" zoomAndPan="magnify" viewBox="0 0 375 374.999991" height="500" preserveAspectRatio="xMidYMid meet" version="1.0"><defs><g/><clipPath id="7306af3235"><path d="M 128.402344 105 L 246.902344 105 L 246.902344 165.578125 L 128.402344 165.578125 Z M 128.402344 105 " clip-rule="nonzero"/></clipPath></defs><g fill="#222222" fill-opacity="1"><g transform="translate(47.158473, 203.653958)"><g><path d="M 14.046875 -12.28125 L 9.390625 -7.5 L 9.390625 0 L 3.9375 0 L 3.9375 -29.359375 L 9.390625 -29.359375 L 9.390625 -14.296875 L 23.90625 -29.359375 L 30.03125 -29.359375 L 17.703125 -16.234375 L 30.78125 0 L 24.40625 0 Z M 14.046875 -12.28125 "/></g></g></g><g fill="#222222" fill-opacity="1"><g transform="translate(83.173773, 203.653958)"><g><path d="M 22.984375 -6.796875 L 8.296875 -6.796875 L 5.40625 0 L -0.203125 0 L 13 -29.359375 L 18.375 -29.359375 L 31.625 0 L 25.921875 0 Z M 21.171875 -11.078125 L 15.640625 -23.90625 L 10.15625 -11.078125 Z M 21.171875 -11.078125 "/></g></g></g><g fill="#222222" fill-opacity="1"><g transform="translate(120.027537, 203.653958)"><g><path d="M 23.15625 0 L 17.15625 -8.59375 C 16.90625 -8.570312 16.523438 -8.5625 16.015625 -8.5625 L 9.390625 -8.5625 L 9.390625 0 L 3.9375 0 L 3.9375 -29.359375 L 16.015625 -29.359375 C 18.566406 -29.359375 20.785156 -28.9375 22.671875 -28.09375 C 24.554688 -27.257812 26 -26.054688 27 -24.484375 C 28.007812 -22.921875 28.515625 -21.0625 28.515625 -18.90625 C 28.515625 -16.695312 27.972656 -14.796875 26.890625 -13.203125 C 25.816406 -11.609375 24.273438 -10.421875 22.265625 -9.640625 L 29.015625 0 Z M 23.03125 -18.90625 C 23.03125 -20.78125 22.410156 -22.222656 21.171875 -23.234375 C 19.941406 -24.242188 18.140625 -24.75 15.765625 -24.75 L 9.390625 -24.75 L 9.390625 -13.046875 L 15.765625 -13.046875 C 18.140625 -13.046875 19.941406 -13.554688 21.171875 -14.578125 C 22.410156 -15.597656 23.03125 -17.039062 23.03125 -18.90625 Z M 23.03125 -18.90625 "/></g></g></g><g fill="#222222" fill-opacity="1"><g transform="translate(156.126672, 203.653958)"><g><path d="M 3.9375 -29.359375 L 16.78125 -29.359375 C 19.90625 -29.359375 22.679688 -28.75 25.109375 -27.53125 C 27.546875 -26.3125 29.4375 -24.59375 30.78125 -22.375 C 32.125 -20.15625 32.796875 -17.585938 32.796875 -14.671875 C 32.796875 -11.765625 32.125 -9.203125 30.78125 -6.984375 C 29.4375 -4.765625 27.546875 -3.046875 25.109375 -1.828125 C 22.679688 -0.609375 19.90625 0 16.78125 0 L 3.9375 0 Z M 16.515625 -4.609375 C 18.671875 -4.609375 20.566406 -5.019531 22.203125 -5.84375 C 23.835938 -6.675781 25.09375 -7.851562 25.96875 -9.375 C 26.851562 -10.894531 27.296875 -12.660156 27.296875 -14.671875 C 27.296875 -16.691406 26.851562 -18.460938 25.96875 -19.984375 C 25.09375 -21.503906 23.835938 -22.675781 22.203125 -23.5 C 20.566406 -24.332031 18.671875 -24.75 16.515625 -24.75 L 9.390625 -24.75 L 9.390625 -4.609375 Z M 16.515625 -4.609375 "/></g></g></g><g fill="#222222" fill-opacity="1"><g transform="translate(196.208537, 203.653958)"><g><path d="M 25.953125 -4.578125 L 25.953125 0 L 3.9375 0 L 3.9375 -29.359375 L 25.375 -29.359375 L 25.375 -24.78125 L 9.390625 -24.78125 L 9.390625 -17.15625 L 23.5625 -17.15625 L 23.5625 -12.671875 L 9.390625 -12.671875 L 9.390625 -4.578125 Z M 25.953125 -4.578125 "/></g></g></g><g fill="#222222" fill-opacity="1"><g transform="translate(229.750333, 203.653958)"><g><path d="M 3.9375 -29.359375 L 9.390625 -29.359375 L 9.390625 -4.609375 L 24.75 -4.609375 L 24.75 0 L 3.9375 0 Z M 3.9375 -29.359375 "/></g></g></g><g fill="#222222" fill-opacity="1"><g transform="translate(260.31557, 203.653958)"><g><path d="M 25.953125 -4.578125 L 25.953125 0 L 3.9375 0 L 3.9375 -29.359375 L 25.375 -29.359375 L 25.375 -24.78125 L 9.390625 -24.78125 L 9.390625 -17.15625 L 23.5625 -17.15625 L 23.5625 -12.671875 L 9.390625 -12.671875 L 9.390625 -4.578125 Z M 25.953125 -4.578125 "/></g></g></g><g fill="#222222" fill-opacity="1"><g transform="translate(293.857387, 203.653958)"><g><path d="M 30.03125 -29.359375 L 30.03125 0 L 25.546875 0 L 9.359375 -19.875 L 9.359375 0 L 3.9375 0 L 3.9375 -29.359375 L 8.421875 -29.359375 L 24.625 -9.484375 L 24.625 -29.359375 Z M 30.03125 -29.359375 "/></g></g></g><g fill="#222222" fill-opacity="1"><g transform="translate(66.388174, 261.920395)"><g><path d="M 22.984375 -6.796875 L 8.296875 -6.796875 L 5.40625 0 L -0.203125 0 L 13 -29.359375 L 18.375 -29.359375 L 31.625 0 L 25.921875 0 Z M 21.171875 -11.078125 L 15.640625 -23.90625 L 10.15625 -11.078125 Z M 21.171875 -11.078125 "/></g></g></g><g fill="#222222" fill-opacity="1"><g transform="translate(103.241938, 261.920395)"><g><path d="M 14.046875 -12.28125 L 9.390625 -7.5 L 9.390625 0 L 3.9375 0 L 3.9375 -29.359375 L 9.390625 -29.359375 L 9.390625 -14.296875 L 23.90625 -29.359375 L 30.03125 -29.359375 L 17.703125 -16.234375 L 30.78125 0 L 24.40625 0 Z M 14.046875 -12.28125 "/></g></g></g><g fill="#222222" fill-opacity="1"><g transform="translate(139.257238, 261.920395)"><g><path d="M 22.984375 -6.796875 L 8.296875 -6.796875 L 5.40625 0 L -0.203125 0 L 13 -29.359375 L 18.375 -29.359375 L 31.625 0 L 25.921875 0 Z M 21.171875 -11.078125 L 15.640625 -23.90625 L 10.15625 -11.078125 Z M 21.171875 -11.078125 "/></g></g></g><g fill="#222222" fill-opacity="1"><g transform="translate(176.111002, 261.920395)"><g><path d="M 3.9375 -29.359375 L 16.78125 -29.359375 C 19.90625 -29.359375 22.679688 -28.75 25.109375 -27.53125 C 27.546875 -26.3125 29.4375 -24.59375 30.78125 -22.375 C 32.125 -20.15625 32.796875 -17.585938 32.796875 -14.671875 C 32.796875 -11.765625 32.125 -9.203125 30.78125 -6.984375 C 29.4375 -4.765625 27.546875 -3.046875 25.109375 -1.828125 C 22.679688 -0.609375 19.90625 0 16.78125 0 L 3.9375 0 Z M 16.515625 -4.609375 C 18.671875 -4.609375 20.566406 -5.019531 22.203125 -5.84375 C 23.835938 -6.675781 25.09375 -7.851562 25.96875 -9.375 C 26.851562 -10.894531 27.296875 -12.660156 27.296875 -14.671875 C 27.296875 -16.691406 26.851562 -18.460938 25.96875 -19.984375 C 25.09375 -21.503906 23.835938 -22.675781 22.203125 -23.5 C 20.566406 -24.332031 18.671875 -24.75 16.515625 -24.75 L 9.390625 -24.75 L 9.390625 -4.609375 Z M 16.515625 -4.609375 "/></g></g></g><g fill="#222222" fill-opacity="1"><g transform="translate(216.192867, 261.920395)"><g><path d="M 25.953125 -4.578125 L 25.953125 0 L 3.9375 0 L 3.9375 -29.359375 L 25.375 -29.359375 L 25.375 -24.78125 L 9.390625 -24.78125 L 9.390625 -17.15625 L 23.5625 -17.15625 L 23.5625 -12.671875 L 9.390625 -12.671875 L 9.390625 -4.578125 Z M 25.953125 -4.578125 "/></g></g></g><g fill="#222222" fill-opacity="1"><g transform="translate(249.734663, 261.920395)"><g><path d="M 30.90625 0 L 30.859375 -19.453125 L 21.21875 -3.359375 L 18.78125 -3.359375 L 9.140625 -19.203125 L 9.140625 0 L 3.9375 0 L 3.9375 -29.359375 L 8.421875 -29.359375 L 20.09375 -9.890625 L 31.53125 -29.359375 L 36.03125 -29.359375 L 36.0625 0 Z M 30.90625 0 "/></g></g></g><g fill="#222222" fill-opacity="1"><g transform="translate(295.224654, 261.920395)"><g><path d="M 3.9375 -29.359375 L 9.390625 -29.359375 L 9.390625 0 L 3.9375 0 Z M 6.671875 -32.25 C 5.804688 -32.25 5.09375 -32.523438 4.53125 -33.078125 C 3.96875 -33.640625 3.6875 -34.359375 3.6875 -35.234375 C 3.6875 -36.097656 3.96875 -36.804688 4.53125 -37.359375 C 5.09375 -37.921875 5.804688 -38.203125 6.671875 -38.203125 C 7.535156 -38.203125 8.242188 -37.921875 8.796875 -37.359375 C 9.359375 -36.804688 9.640625 -36.097656 9.640625 -35.234375 C 9.640625 -34.359375 9.359375 -33.640625 8.796875 -33.078125 C 8.242188 -32.523438 7.535156 -32.25 6.671875 -32.25 Z M 6.671875 -32.25 "/></g></g></g><g clip-path="url(#7306af3235)"><path fill="#222222" d="M 244.363281 122.328125 L 193.476562 106.191406 C 189.5625 104.953125 185.4375 104.953125 181.527344 106.191406 L 130.574219 122.347656 C 129.253906 122.808594 128.402344 124.007812 128.402344 125.402344 C 128.402344 126.792969 129.253906 127.988281 130.636719 128.472656 L 158.929688 137.449219 L 158.929688 158.476562 C 158.929688 159.359375 159.480469 160.148438 160.304688 160.457031 C 168.984375 163.679688 178.132812 165.308594 187.5 165.308594 C 196.867188 165.308594 206.015625 163.675781 214.691406 160.457031 C 215.519531 160.152344 216.070312 159.359375 216.070312 158.476562 L 216.070312 145.160156 C 216.070312 143.996094 215.125 143.050781 213.957031 143.050781 C 212.792969 143.050781 211.847656 143.996094 211.847656 145.160156 L 211.847656 156.996094 C 196.257812 162.429688 178.742188 162.429688 163.152344 156.996094 L 163.152344 138.789062 L 181.527344 144.617188 C 183.480469 145.230469 185.492188 145.542969 187.5 145.542969 C 189.507812 145.542969 191.523438 145.234375 193.476562 144.617188 L 220.582031 136.007812 L 220.582031 163.203125 C 220.582031 164.367188 221.527344 165.3125 222.691406 165.3125 C 223.859375 165.3125 224.804688 164.367188 224.804688 163.203125 L 224.804688 133.125 C 224.804688 133.074219 224.761719 133.042969 224.761719 132.992188 C 224.75 132.820312 224.761719 132.65625 224.707031 132.488281 C 224.648438 132.300781 224.539062 132.15625 224.4375 132 C 224.402344 131.949219 224.386719 131.894531 224.347656 131.84375 C 224.105469 131.535156 223.789062 131.324219 223.429688 131.183594 C 223.390625 131.167969 223.371094 131.125 223.324219 131.109375 L 188.136719 119.949219 C 187.035156 119.609375 185.839844 120.210938 185.492188 121.324219 C 185.140625 122.4375 185.753906 123.625 186.867188 123.972656 L 215.714844 133.121094 L 192.203125 140.589844 C 189.125 141.558594 185.875 141.558594 182.804688 140.589844 L 134.910156 125.402344 L 182.800781 110.210938 C 185.875 109.242188 189.125 109.242188 192.199219 110.210938 L 240.089844 125.402344 L 230.867188 128.324219 C 229.757812 128.679688 229.140625 129.863281 229.496094 130.976562 C 229.847656 132.085938 231.03125 132.703125 232.148438 132.347656 L 244.421875 128.449219 C 245.746094 127.988281 246.597656 126.789062 246.597656 125.394531 C 246.597656 124.003906 245.746094 122.808594 244.363281 122.324219 Z M 244.363281 122.328125 " fill-opacity="1" fill-rule="nonzero"/></g></svg>